<svg xmlns="http://www.w3.org/2000/svg" width="600" height="600" viewBox="0 0 600 600"><rect width="600" height="600" rx="48" fill="#FFF0F9"/><path d="M 300 252 C 342 357 285.6 447 321.6 552" stroke="#9CA379" stroke-width="14" fill="none" stroke-linecap="round"/><path d="M 318 408 C 402 348 426 420 330 456 Z" fill="#9CA379"/><path d="M 312.6 474 C 219.6 420 201.6 492 303.6 522 Z" fill="#898F6A"/><ellipse cx="300" cy="166.2" rx="54.3" ry="73.8" fill="#FFBBE2" transform="rotate(55 300 240)"/><ellipse cx="300" cy="166.2" rx="54.3" ry="73.8" fill="#FFBBE2" transform="rotate(115 300 240)"/><ellipse cx="300" cy="166.2" rx="54.3" ry="73.8" fill="#FFBBE2" transform="rotate(175 300 240)"/><ellipse cx="300" cy="166.2" rx="54.3" ry="73.8" fill="#FFBBE2" transform="rotate(235 300 240)"/><ellipse cx="300" cy="166.2" rx="54.3" ry="73.8" fill="#FFBBE2" transform="rotate(295 300 240)"/><ellipse cx="300" cy="166.2" rx="54.3" ry="73.8" fill="#FFBBE2" transform="rotate(355 300 240)"/><circle cx="300" cy="240" r="40.1" fill="#FFFFFF"/></svg>